<svg width="54" height="63" viewBox="0 0 54 63" fill="none" xmlns="http://www.w3.org/2000/svg">
<path d="M0.515625 31.153L8.82317 27.5185V18.1725L18.1692 23.3647L26.4767 19.7301L8.82317 9.3457L0.515625 13.4995V31.153Z" fill="black"/>
<path d="M53.999 13.4998L46.7299 9.86523L37.3839 15.0574L43.6146 18.1728L0 38.4224V48.8068L6.74988 51.9222L16.6151 47.7684L10.3844 44.1339L53.999 24.4034V13.4998Z" fill="black"/>
<path d="M54.0001 47.7684V31.1533L46.2118 34.2686V43.6146L36.3466 38.9416L28.0391 43.6146L46.2118 52.4414L54.0001 47.7684Z" fill="black"/>
<path d="M27.5154 52.9607L22.8424 50.8838L14.0156 55.0376L27.5154 62.3067L41.0151 55.0376L33.2268 50.8838L27.5154 52.9607Z" fill="black"/>
<path d="M27.5154 0L14.0156 6.74988L22.3232 11.9421L27.5154 9.34599L31.6692 11.9421L41.0151 7.78832L27.5154 0Z" fill="black"/>
</svg>
